<svg width="40" height="41" viewBox="0 0 40 41" fill="none" xmlns="http://www.w3.org/2000/svg">
<ellipse cx="20" cy="20.1647" rx="20" ry="20.017" fill="white"/>
<path d="M29.8063 25.2843C29.8063 25.2012 29.7232 25.2012 29.7232 25.1182C29.3911 24.4534 28.6439 23.6225 27.6477 22.7085C27.1495 22.293 26.9004 21.9606 26.7344 21.7944C26.4853 21.462 26.4853 21.2128 26.5684 20.8804C26.6514 20.6311 26.9835 20.2156 27.5646 19.4678C27.8967 19.0523 28.0628 18.8031 28.3118 18.5538C29.5572 16.8919 30.1383 15.8117 29.9723 15.3131L29.8893 15.23C29.8063 15.1469 29.7232 15.0639 29.5572 15.0639C29.3911 14.9808 29.1421 14.9808 28.893 15.0639H25.7381C25.6551 15.0639 25.6551 15.0639 25.4891 15.0639C25.406 15.0639 25.323 15.0639 25.323 15.0639H25.24H25.157L25.0739 15.1469C24.9909 15.23 24.9909 15.23 24.9909 15.3131C24.6588 16.2272 24.2437 16.975 23.8286 17.8059C23.5795 18.2214 23.3305 18.6369 23.0814 18.9692C22.8323 19.3016 22.6663 19.5509 22.5002 19.7171C22.3342 19.8833 22.1681 19.9664 22.0851 20.1325C22.0021 20.2156 21.8361 20.2987 21.8361 20.2156C21.753 20.2156 21.67 20.2156 21.67 20.1325C21.587 20.0495 21.504 19.9664 21.4209 19.8833C21.3379 19.8002 21.3379 19.634 21.2549 19.4678C21.2549 19.3016 21.2549 19.1354 21.2549 19.0523C21.2549 18.9692 21.2549 18.72 21.2549 18.5538C21.2549 18.3045 21.2549 18.1383 21.2549 18.0552C21.2549 17.8059 21.2549 17.4736 21.2549 17.1412C21.2549 16.8088 21.2549 16.5595 21.2549 16.3933C21.2549 16.2272 21.2549 15.9779 21.2549 15.8117C21.2549 15.5624 21.2549 15.3962 21.2549 15.3131C21.2549 15.23 21.1719 15.0639 21.1719 14.9808C21.0889 14.8977 21.0058 14.8146 20.9228 14.7315C20.8398 14.6484 20.6737 14.6484 20.5907 14.5653C20.1756 14.4822 19.6775 14.3991 19.0963 14.3991C17.7679 14.3991 16.8547 14.4822 16.5226 14.6484C16.3565 14.7315 16.1905 14.8146 16.1075 14.9808C15.9414 15.1469 15.9414 15.23 16.0245 15.23C16.4396 15.3131 16.7717 15.4793 16.9377 15.7286L17.0207 15.8948C17.1038 15.9779 17.1037 16.1441 17.1868 16.3933C17.2698 16.6426 17.2698 16.8919 17.2698 17.2243C17.2698 17.7228 17.2698 18.2214 17.2698 18.5538C17.2698 18.9692 17.1868 19.2185 17.1868 19.4678C17.1868 19.7171 17.1038 19.8833 17.0207 19.9664C16.9377 20.1326 16.9377 20.2156 16.8547 20.2156C16.8547 20.2156 16.8547 20.2987 16.7717 20.2987C16.6886 20.2987 16.6056 20.3818 16.4396 20.3818C16.3565 20.3818 16.1905 20.2987 16.1075 20.2156C15.9414 20.1326 15.7754 19.9664 15.6924 19.8002C15.5263 19.634 15.3603 19.3847 15.1942 19.0523C15.0282 18.72 14.7791 18.3876 14.6131 17.889L14.447 17.5567C14.364 17.3905 14.198 17.0581 14.0319 16.6426C13.8659 16.2272 13.6998 15.8948 13.5338 15.4793C13.4507 15.3131 13.3677 15.23 13.2847 15.1469H13.2017C13.2017 15.1469 13.1186 15.0639 13.0356 15.0639C12.9526 15.0639 12.8696 14.9808 12.7866 14.9808H9.79773C9.46564 14.9808 9.2996 15.0639 9.21657 15.1469L9.13354 15.23C9.13354 15.23 9.13354 15.3131 9.13354 15.3962C9.13354 15.4793 9.13355 15.5624 9.21657 15.7286C9.63169 16.7257 10.1298 17.7228 10.628 18.72C11.1261 19.634 11.6242 20.4649 11.9563 21.0466C12.3714 21.6282 12.7035 22.2099 13.1186 22.7085C13.5338 23.207 13.7828 23.5394 13.8658 23.7056C14.0319 23.8718 14.1149 23.9548 14.1979 24.0379L14.447 24.2872C14.6131 24.4534 14.8621 24.7027 15.1942 24.952C15.5263 25.2013 15.9414 25.4505 16.3565 25.6998C16.7717 25.9491 17.2698 26.1153 17.7679 26.2815C18.3491 26.4477 18.8472 26.5307 19.3454 26.4477H20.5907C20.8398 26.4477 21.0058 26.3646 21.1719 26.1984L21.2549 26.1153C21.2549 26.0322 21.3379 26.0322 21.3379 25.9491C21.3379 25.866 21.3379 25.7829 21.3379 25.6167C21.3379 25.2843 21.3379 25.0351 21.4209 24.7858C21.504 24.5365 21.504 24.3703 21.587 24.2041C21.67 24.0379 21.753 23.9548 21.8361 23.8718C21.9191 23.7887 22.0021 23.7056 22.0021 23.7056H22.0851C22.2512 23.6225 22.5002 23.7056 22.6663 23.8718C22.9154 24.0379 23.1644 24.2872 23.3305 24.5365C23.4965 24.7858 23.7456 25.0351 24.0777 25.3674C24.4098 25.6998 24.6588 25.9491 24.8249 26.0322L25.0739 26.1984C25.24 26.2815 25.406 26.3646 25.6551 26.4477C25.9042 26.5307 26.0702 26.5307 26.2363 26.5307L29.0591 26.4477C29.3081 26.4477 29.5572 26.3646 29.7232 26.2815C29.8893 26.1984 29.9723 26.1153 29.9723 25.9491C29.9723 25.866 29.9723 25.6998 29.9723 25.6167C29.8062 25.4505 29.8063 25.3674 29.8063 25.2843Z" fill="black"/>
<circle cx="20" cy="20" r="19.5" stroke="#2174F6"/>
</svg>
