<svg width="40" height="41" viewBox="0 0 40 41" fill="none" xmlns="http://www.w3.org/2000/svg">
<ellipse cx="20" cy="20.1647" rx="20" ry="20.017" fill="url(#paint0_linear_39_27)"/>
<path d="M26.5808 12.1579H14.4192C13.0462 12.1579 12 13.2049 12 14.5792V26.751C12 28.1253 13.0462 29.1723 14.4192 29.1723H26.5808C27.9538 29.1723 29 28.1253 29 26.751V14.5792C29 13.2049 27.9538 12.1579 26.5808 12.1579ZM20.5 25.7694C23.3115 25.7694 25.6 23.5445 25.6 20.8614C25.6 20.4034 25.5346 19.8798 25.4038 19.4872H26.8423V26.4238C26.8423 26.751 26.5808 27.0782 26.1885 27.0782H14.8115C14.4846 27.0782 14.1577 26.8165 14.1577 26.4238V19.4218H15.6615C15.5308 19.8798 15.4654 20.3379 15.4654 20.796C15.4 23.5445 17.6885 25.7694 20.5 25.7694ZM20.5 23.8062C18.6692 23.8062 17.2308 22.3666 17.2308 20.5997C17.2308 18.8328 18.6692 17.3931 20.5 17.3931C22.3308 17.3931 23.7692 18.8328 23.7692 20.5997C23.7692 22.432 22.3308 23.8062 20.5 23.8062ZM26.7769 16.8041C26.7769 17.1968 26.45 17.524 26.0577 17.524H24.2269C23.8346 17.524 23.5077 17.1968 23.5077 16.8041V15.0373C23.5077 14.6446 23.8346 14.3174 24.2269 14.3174H26.0577C26.45 14.3174 26.7769 14.6446 26.7769 15.0373V16.8041Z" fill="black"/>
<circle cx="20" cy="20" r="19.5" stroke="#2174F6"/>
<defs>
<linearGradient id="paint0_linear_39_27" x1="8.5" y1="35.6778" x2="35.0233" y2="8.17699" gradientUnits="userSpaceOnUse">
<stop stop-color="white"/>
</linearGradient>
</defs>
</svg>
