<svg width="40" height="41" viewBox="0 0 40 41" fill="none" xmlns="http://www.w3.org/2000/svg">
<ellipse cx="20" cy="20.1647" rx="20" ry="20.017" fill="white"/>
<path d="M9.3507 20.5391L13.9488 22.2551L15.7413 28.0271C15.8192 28.4171 16.2868 28.4951 16.5985 28.2611L19.1703 26.1551C19.4041 25.9211 19.7938 25.9211 20.1055 26.1551L24.7036 29.5091C25.0154 29.7431 25.483 29.5871 25.5609 29.1971L28.99 12.8171C29.0679 12.4271 28.6782 12.0371 28.2886 12.1931L9.3507 19.5251C8.8831 19.6811 8.8831 20.3831 9.3507 20.5391ZM15.5075 21.3971L24.5477 15.8591C24.7036 15.7811 24.8595 16.0151 24.7036 16.0931L17.2999 23.0351C17.0661 23.2691 16.8323 23.5811 16.8323 23.9711L16.5985 25.8431C16.5985 26.0771 16.2089 26.1551 16.1309 25.8431L15.1957 22.4111C14.9619 22.0211 15.1178 21.5531 15.5075 21.3971Z" fill="black"/>
<circle cx="20" cy="20" r="19.5" stroke="#2174F6"/>
</svg>
