<svg width="40" height="41" viewBox="0 0 40 41" fill="none" xmlns="http://www.w3.org/2000/svg">
<path d="M40 20.1647C40 31.2198 31.0457 40.1817 20 40.1817C8.9543 40.1817 0 31.2198 0 20.1647C0 9.10961 8.9543 0.147705 20 0.147705C31.0457 0.147705 40 9.10961 40 20.1647Z" fill="white"/>
<path d="M26.8914 11.157H13.1086C11.9463 11.157 11 12.0778 11 13.2188V26.7503C11 27.8912 11.9463 28.812 13.1086 28.812H24.7726L24.2274 26.9604L25.544 28.1515L26.7886 29.2724L29 31.174V13.2188C29 12.0778 28.0537 11.157 26.8914 11.157ZM22.9211 24.2281C22.9211 24.2281 22.5509 23.7978 22.2423 23.4174C23.5897 23.0471 24.104 22.2264 24.104 22.2264C23.6823 22.4967 23.2811 22.6868 22.9211 22.8169C22.4069 23.0271 21.9131 23.1672 21.4297 23.2473C20.4423 23.4275 19.5371 23.3774 18.7657 23.2373C18.1794 23.1272 17.6754 22.9671 17.2537 22.8069C17.0171 22.7168 16.76 22.6068 16.5029 22.4666C16.472 22.4466 16.4411 22.4366 16.4103 22.4166C16.3897 22.4066 16.3794 22.3966 16.3691 22.3866C16.184 22.2865 16.0811 22.2164 16.0811 22.2164C16.0811 22.2164 16.5749 23.0171 17.8811 23.3974C17.5726 23.7777 17.192 24.2281 17.192 24.2281C14.9189 24.1581 14.0549 22.7068 14.0549 22.7068C14.0549 19.4841 15.536 16.8719 15.536 16.8719C17.0171 15.791 18.4263 15.821 18.4263 15.821L18.5291 15.9411C16.6777 16.4615 15.824 17.2522 15.824 17.2522C15.824 17.2522 16.0503 17.1321 16.4309 16.962C17.5314 16.4916 18.4057 16.3615 18.7657 16.3314C18.8274 16.3214 18.8789 16.3114 18.9406 16.3114C19.568 16.2313 20.2777 16.2113 21.0183 16.2914C21.9954 16.4015 23.0446 16.6817 24.1143 17.2522C24.1143 17.2522 23.3017 16.5016 21.5531 15.9811L21.6971 15.821C21.6971 15.821 23.1063 15.791 24.5874 16.8719C24.5874 16.8719 26.0686 19.4841 26.0686 22.7068C26.0686 22.7068 25.1943 24.1581 22.9211 24.2281ZM18.1383 19.5542C17.552 19.5542 17.0891 20.0546 17.0891 20.6651C17.0891 21.2756 17.5623 21.776 18.1383 21.776C18.7246 21.776 19.1874 21.2756 19.1874 20.6651C19.1977 20.0546 18.7246 19.5542 18.1383 19.5542ZM21.8926 19.5542C21.3063 19.5542 20.8434 20.0546 20.8434 20.6651C20.8434 21.2756 21.3166 21.776 21.8926 21.776C22.4789 21.776 22.9417 21.2756 22.9417 20.6651C22.9417 20.0546 22.4789 19.5542 21.8926 19.5542Z" fill="black"/>
<circle cx="20" cy="20" r="19.5" stroke="#2174F6"/>
</svg>
